<svg width="24" height="24" viewBox="0 0 24 24" fill="none" xmlns="http://www.w3.org/2000/svg">
<g id="COCO/Bold/Copy">
<path id="Vector" fill-rule="evenodd" clip-rule="evenodd" d="M16.0665 16.6447C15.6893 16.733 15.3082 16.7986 14.9251 16.8414C14.4166 18.5831 13.0057 19.9271 11.2221 20.3445C9.95035 20.6421 8.62681 20.6421 7.35505 20.3445C5.48372 19.9065 4.02256 18.4486 3.5836 16.5814C3.28528 15.3125 3.28528 13.9919 3.5836 12.7229C4.00196 10.9433 5.34886 9.53551 7.09445 9.02815C7.13741 8.64592 7.20314 8.2656 7.29162 7.88923C7.79388 5.75279 9.46573 4.08464 11.6069 3.5835C13.0736 3.24023 14.5999 3.24023 16.0665 3.5835C18.2077 4.08464 19.8796 5.75279 20.3818 7.88923C20.7259 9.35261 20.7259 10.8756 20.3818 12.339C19.8796 14.4754 18.2077 16.1436 16.0665 16.6447ZM11.6069 16.6447C12.2165 16.7874 12.8365 16.8708 13.4582 16.8948C12.9986 17.9532 12.0606 18.7499 10.9105 19.0191C9.8437 19.2687 8.73346 19.2687 7.66665 19.0191C6.29983 18.6991 5.2326 17.6343 4.91199 16.2705C4.66175 15.2061 4.66175 14.0983 4.91199 13.0338C5.18177 11.8863 5.9802 10.9503 7.04094 10.4918C7.06144 11.0189 7.12484 11.5446 7.23115 12.0639C7.24996 12.1558 7.27012 12.2475 7.29162 12.339C7.79388 14.4754 9.46573 16.1436 11.6069 16.6447Z" fill="#454757"/>
</g>
</svg>
